<svg xmlns="http://www.w3.org/2000/svg" viewBox="0 0 1400 700" preserveAspectRatio="xMidYMid slice">
  <defs>
    <linearGradient id="sky" x1="0%" y1="0%" x2="0%" y2="100%">
      <stop offset="0%" stop-color="#1a2a4a"/>
      <stop offset="100%" stop-color="#2c4a7c"/>
    </linearGradient>
    <linearGradient id="ground" x1="0%" y1="0%" x2="0%" y2="100%">
      <stop offset="0%" stop-color="#1e2e1e"/>
      <stop offset="100%" stop-color="#0a120a"/>
    </linearGradient>
    <linearGradient id="bld1" x1="0%" y1="0%" x2="0%" y2="100%">
      <stop offset="0%" stop-color="#2d3d5a"/>
      <stop offset="100%" stop-color="#1a2535"/>
    </linearGradient>
    <linearGradient id="bld2" x1="0%" y1="0%" x2="0%" y2="100%">
      <stop offset="0%" stop-color="#3a4d6a"/>
      <stop offset="100%" stop-color="#1e2e42"/>
    </linearGradient>
  </defs>
  <!-- Sky -->
  <rect width="1400" height="700" fill="url(#sky)"/>
  <!-- Distant haze -->
  <rect x="0" y="350" width="1400" height="80" fill="rgba(44,74,124,0.3)"/>

  <!-- Far background buildings -->
  <rect x="0" y="320" width="80" height="380" fill="#1e2d45" opacity="0.6"/>
  <rect x="90" y="290" width="60" height="410" fill="#1a2840" opacity="0.6"/>
  <rect x="160" y="310" width="100" height="390" fill="#1e2d45" opacity="0.6"/>
  <rect x="270" y="270" width="70" height="430" fill="#1a2840" opacity="0.5"/>
  <rect x="350" y="300" width="90" height="400" fill="#1e2d45" opacity="0.5"/>
  <rect x="1050" y="280" width="90" height="420" fill="#1e2d45" opacity="0.5"/>
  <rect x="1150" y="260" width="70" height="440" fill="#1a2840" opacity="0.5"/>
  <rect x="1230" y="295" width="100" height="405" fill="#1e2d45" opacity="0.5"/>
  <rect x="1340" y="310" width="60" height="390" fill="#1a2840" opacity="0.5"/>

  <!-- Main building under construction LEFT -->
  <rect x="50" y="150" width="200" height="550" fill="url(#bld1)"/>
  <!-- Scaffolding left building -->
  <rect x="40" y="148" width="5" height="552" fill="#4a6080" opacity="0.8"/>
  <rect x="255" y="148" width="5" height="552" fill="#4a6080" opacity="0.8"/>
  <line x1="40" y1="200" x2="260" y2="200" stroke="#4a6080" stroke-width="2" opacity="0.7"/>
  <line x1="40" y1="250" x2="260" y2="250" stroke="#4a6080" stroke-width="2" opacity="0.7"/>
  <line x1="40" y1="300" x2="260" y2="300" stroke="#4a6080" stroke-width="2" opacity="0.7"/>
  <line x1="40" y1="350" x2="260" y2="350" stroke="#4a6080" stroke-width="2" opacity="0.7"/>
  <line x1="40" y1="400" x2="260" y2="400" stroke="#4a6080" stroke-width="2" opacity="0.7"/>
  <line x1="40" y1="450" x2="260" y2="450" stroke="#4a6080" stroke-width="2" opacity="0.7"/>
  <!-- Windows left -->
  <rect x="65" y="165" width="18" height="14" rx="1" fill="#F5C518" opacity="0.5"/>
  <rect x="90" y="165" width="18" height="14" rx="1" fill="rgba(180,210,255,0.4)"/>
  <rect x="115" y="165" width="18" height="14" rx="1" fill="#F5C518" opacity="0.3"/>
  <rect x="140" y="165" width="18" height="14" rx="1" fill="rgba(180,210,255,0.4)"/>
  <rect x="165" y="165" width="18" height="14" rx="1" fill="#F5C518" opacity="0.5"/>
  <rect x="190" y="165" width="18" height="14" rx="1" fill="rgba(180,210,255,0.3)"/>
  <rect x="215" y="165" width="18" height="14" rx="1" fill="#F5C518" opacity="0.4"/>
  <rect x="65" y="190" width="18" height="14" rx="1" fill="rgba(180,210,255,0.3)"/>
  <rect x="90" y="190" width="18" height="14" rx="1" fill="#F5C518" opacity="0.4"/>
  <rect x="115" y="190" width="18" height="14" rx="1" fill="rgba(180,210,255,0.5)"/>
  <rect x="140" y="190" width="18" height="14" rx="1" fill="#F5C518" opacity="0.3"/>
  <rect x="165" y="190" width="18" height="14" rx="1" fill="rgba(180,210,255,0.4)"/>
  <rect x="65" y="215" width="18" height="14" rx="1" fill="#F5C518" opacity="0.5"/>
  <rect x="90" y="215" width="18" height="14" rx="1" fill="rgba(180,210,255,0.3)"/>
  <rect x="115" y="215" width="18" height="14" rx="1" fill="#F5C518" opacity="0.4"/>
  <rect x="140" y="215" width="18" height="14" rx="1" fill="rgba(180,210,255,0.5)"/>
  <rect x="65" y="265" width="168" height="30" fill="rgba(255,255,255,0.04)"/>
  <rect x="65" y="315" width="168" height="30" fill="rgba(255,255,255,0.04)"/>
  <rect x="65" y="365" width="168" height="30" fill="rgba(255,255,255,0.04)"/>

  <!-- CRANE LEFT -->
  <line x1="150" y1="10" x2="150" y2="155" stroke="#8aafcf" stroke-width="5"/>
  <line x1="60" y1="30" x2="280" y2="30" stroke="#8aafcf" stroke-width="5"/>
  <line x1="150" y1="30" x2="60" y2="90" stroke="#8aafcf" stroke-width="2"/>
  <line x1="150" y1="30" x2="240" y2="80" stroke="#8aafcf" stroke-width="2"/>
  <line x1="200" y1="30" x2="200" y2="60" stroke="#8aafcf" stroke-width="1.5" stroke-dasharray="4 3"/>
  <rect x="198" y="58" width="5" height="8" fill="#F5C518"/>

  <!-- TALL CENTRE BUILDING -->
  <rect x="500" y="80" width="280" height="620" fill="url(#bld2)"/>
  <!-- Vertical structure lines -->
  <line x1="540" y1="80" x2="540" y2="700" stroke="rgba(255,255,255,0.05)" stroke-width="1"/>
  <line x1="580" y1="80" x2="580" y2="700" stroke="rgba(255,255,255,0.05)" stroke-width="1"/>
  <line x1="620" y1="80" x2="620" y2="700" stroke="rgba(255,255,255,0.05)" stroke-width="1"/>
  <line x1="660" y1="80" x2="660" y2="700" stroke="rgba(255,255,255,0.05)" stroke-width="1"/>
  <line x1="700" y1="80" x2="700" y2="700" stroke="rgba(255,255,255,0.05)" stroke-width="1"/>
  <line x1="740" y1="80" x2="740" y2="700" stroke="rgba(255,255,255,0.05)" stroke-width="1"/>
  <!-- Window grid centre building -->
  <rect x="515" y="100" width="20" height="16" rx="1" fill="rgba(180,210,255,0.5)"/>
  <rect x="542" y="100" width="20" height="16" rx="1" fill="#F5C518" opacity="0.6"/>
  <rect x="569" y="100" width="20" height="16" rx="1" fill="rgba(180,210,255,0.4)"/>
  <rect x="596" y="100" width="20" height="16" rx="1" fill="#F5C518" opacity="0.5"/>
  <rect x="623" y="100" width="20" height="16" rx="1" fill="rgba(180,210,255,0.5)"/>
  <rect x="650" y="100" width="20" height="16" rx="1" fill="#F5C518" opacity="0.4"/>
  <rect x="677" y="100" width="20" height="16" rx="1" fill="rgba(180,210,255,0.3)"/>
  <rect x="704" y="100" width="20" height="16" rx="1" fill="#F5C518" opacity="0.6"/>
  <rect x="731" y="100" width="20" height="16" rx="1" fill="rgba(180,210,255,0.5)"/>
  <rect x="758" y="100" width="20" height="16" rx="1" fill="#F5C518" opacity="0.4"/>
  <rect x="515" y="124" width="20" height="16" rx="1" fill="#F5C518" opacity="0.4"/>
  <rect x="542" y="124" width="20" height="16" rx="1" fill="rgba(180,210,255,0.5)"/>
  <rect x="569" y="124" width="20" height="16" rx="1" fill="#F5C518" opacity="0.5"/>
  <rect x="596" y="124" width="20" height="16" rx="1" fill="rgba(180,210,255,0.4)"/>
  <rect x="623" y="124" width="20" height="16" rx="1" fill="#F5C518" opacity="0.3"/>
  <rect x="650" y="124" width="20" height="16" rx="1" fill="rgba(180,210,255,0.5)"/>
  <rect x="677" y="124" width="20" height="16" rx="1" fill="#F5C518" opacity="0.5"/>
  <rect x="515" y="148" width="20" height="16" rx="1" fill="rgba(180,210,255,0.4)"/>
  <rect x="542" y="148" width="20" height="16" rx="1" fill="#F5C518" opacity="0.5"/>
  <rect x="569" y="148" width="20" height="16" rx="1" fill="rgba(180,210,255,0.3)"/>
  <rect x="596" y="148" width="20" height="16" rx="1" fill="#F5C518" opacity="0.4"/>
  <rect x="623" y="148" width="20" height="16" rx="1" fill="rgba(180,210,255,0.5)"/>
  <rect x="650" y="148" width="20" height="16" rx="1" fill="#F5C518" opacity="0.6"/>
  <!-- Large glass facade -->
  <rect x="510" y="200" width="258" height="180" fill="rgba(100,160,220,0.1)" stroke="rgba(100,160,220,0.15)" stroke-width="1"/>
  <line x1="510" y1="230" x2="768" y2="230" stroke="rgba(100,160,220,0.1)" stroke-width="1"/>
  <line x1="510" y1="260" x2="768" y2="260" stroke="rgba(100,160,220,0.1)" stroke-width="1"/>
  <line x1="510" y1="290" x2="768" y2="290" stroke="rgba(100,160,220,0.1)" stroke-width="1"/>
  <line x1="510" y1="320" x2="768" y2="320" stroke="rgba(100,160,220,0.1)" stroke-width="1"/>
  <line x1="510" y1="350" x2="768" y2="350" stroke="rgba(100,160,220,0.1)" stroke-width="1"/>
  <rect x="510" y="420" width="258" height="160" fill="rgba(100,160,220,0.08)" stroke="rgba(100,160,220,0.12)" stroke-width="1"/>

  <!-- CRANE CENTRE (tall) -->
  <line x1="640" y1="0" x2="640" y2="83" stroke="#8aafcf" stroke-width="6"/>
  <line x1="500" y1="18" x2="820" y2="18" stroke="#8aafcf" stroke-width="6"/>
  <line x1="640" y1="18" x2="500" y2="75" stroke="#8aafcf" stroke-width="2.5"/>
  <line x1="640" y1="18" x2="780" y2="65" stroke="#8aafcf" stroke-width="2.5"/>
  <line x1="720" y1="18" x2="720" y2="55" stroke="#8aafcf" stroke-width="2" stroke-dasharray="5 3"/>
  <rect x="717" y="54" width="7" height="10" fill="#F5C518"/>
  <!-- Crane counterweight -->
  <rect x="500" y="15" width="30" height="12" rx="2" fill="#6a8aaa"/>

  <!-- RIGHT building under construction -->
  <rect x="1000" y="120" width="250" height="580" fill="url(#bld1)"/>
  <!-- Scaffolding right -->
  <rect x="990" y="118" width="5" height="582" fill="#4a6080" opacity="0.8"/>
  <rect x="1255" y="118" width="5" height="582" fill="#4a6080" opacity="0.8"/>
  <line x1="990" y1="170" x2="1260" y2="170" stroke="#4a6080" stroke-width="2" opacity="0.7"/>
  <line x1="990" y1="220" x2="1260" y2="220" stroke="#4a6080" stroke-width="2" opacity="0.7"/>
  <line x1="990" y1="270" x2="1260" y2="270" stroke="#4a6080" stroke-width="2" opacity="0.7"/>
  <line x1="990" y1="320" x2="1260" y2="320" stroke="#4a6080" stroke-width="2" opacity="0.7"/>
  <line x1="990" y1="370" x2="1260" y2="370" stroke="#4a6080" stroke-width="2" opacity="0.7"/>
  <line x1="990" y1="420" x2="1260" y2="420" stroke="#4a6080" stroke-width="2" opacity="0.7"/>
  <!-- Windows right building -->
  <rect x="1010" y="135" width="18" height="14" rx="1" fill="#F5C518" opacity="0.5"/>
  <rect x="1035" y="135" width="18" height="14" rx="1" fill="rgba(180,210,255,0.4)"/>
  <rect x="1060" y="135" width="18" height="14" rx="1" fill="#F5C518" opacity="0.4"/>
  <rect x="1085" y="135" width="18" height="14" rx="1" fill="rgba(180,210,255,0.5)"/>
  <rect x="1110" y="135" width="18" height="14" rx="1" fill="#F5C518" opacity="0.3"/>
  <rect x="1135" y="135" width="18" height="14" rx="1" fill="rgba(180,210,255,0.4)"/>
  <rect x="1160" y="135" width="18" height="14" rx="1" fill="#F5C518" opacity="0.5"/>
  <rect x="1185" y="135" width="18" height="14" rx="1" fill="rgba(180,210,255,0.3)"/>
  <rect x="1210" y="135" width="18" height="14" rx="1" fill="#F5C518" opacity="0.4"/>
  <rect x="1235" y="135" width="18" height="14" rx="1" fill="rgba(180,210,255,0.5)"/>
  <rect x="1010" y="158" width="18" height="14" rx="1" fill="rgba(180,210,255,0.5)"/>
  <rect x="1035" y="158" width="18" height="14" rx="1" fill="#F5C518" opacity="0.4"/>
  <rect x="1060" y="158" width="18" height="14" rx="1" fill="rgba(180,210,255,0.3)"/>
  <rect x="1085" y="158" width="18" height="14" rx="1" fill="#F5C518" opacity="0.5"/>
  <rect x="1010" y="181" width="232" height="25" fill="rgba(255,255,255,0.04)"/>
  <rect x="1010" y="230" width="232" height="25" fill="rgba(255,255,255,0.04)"/>
  <!-- Glass facade right -->
  <rect x="1005" y="290" width="240" height="150" fill="rgba(100,160,220,0.09)" stroke="rgba(100,160,220,0.12)" stroke-width="1"/>

  <!-- CRANE RIGHT -->
  <line x1="1130" y1="10" x2="1130" y2="123" stroke="#8aafcf" stroke-width="5"/>
  <line x1="1030" y1="28" x2="1290" y2="28" stroke="#8aafcf" stroke-width="5"/>
  <line x1="1130" y1="28" x2="1030" y2="80" stroke="#8aafcf" stroke-width="2"/>
  <line x1="1130" y1="28" x2="1260" y2="75" stroke="#8aafcf" stroke-width="2"/>
  <line x1="1190" y1="28" x2="1190" y2="62" stroke="#8aafcf" stroke-width="2" stroke-dasharray="4 3"/>
  <rect x="1188" y="61" width="5" height="8" fill="#F5C518"/>

  <!-- Mid building -->
  <rect x="320" y="220" width="160" height="480" fill="#253545"/>
  <rect x="340" y="235" width="16" height="12" rx="1" fill="#F5C518" opacity="0.4"/>
  <rect x="362" y="235" width="16" height="12" rx="1" fill="rgba(180,210,255,0.4)"/>
  <rect x="384" y="235" width="16" height="12" rx="1" fill="#F5C518" opacity="0.5"/>
  <rect x="406" y="235" width="16" height="12" rx="1" fill="rgba(180,210,255,0.3)"/>
  <rect x="428" y="235" width="16" height="12" rx="1" fill="#F5C518" opacity="0.4"/>
  <rect x="340" y="255" width="16" height="12" rx="1" fill="rgba(180,210,255,0.5)"/>
  <rect x="362" y="255" width="16" height="12" rx="1" fill="#F5C518" opacity="0.4"/>
  <rect x="384" y="255" width="16" height="12" rx="1" fill="rgba(180,210,255,0.3)"/>
  <rect x="406" y="255" width="16" height="12" rx="1" fill="#F5C518" opacity="0.5"/>
  <!-- another mid right -->
  <rect x="870" y="200" width="120" height="500" fill="#253545"/>
  <rect x="885" y="215" width="14" height="11" rx="1" fill="#F5C518" opacity="0.4"/>
  <rect x="904" y="215" width="14" height="11" rx="1" fill="rgba(180,210,255,0.4)"/>
  <rect x="923" y="215" width="14" height="11" rx="1" fill="#F5C518" opacity="0.5"/>
  <rect x="942" y="215" width="14" height="11" rx="1" fill="rgba(180,210,255,0.3)"/>
  <rect x="961" y="215" width="14" height="11" rx="1" fill="#F5C518" opacity="0.4)"/>

  <!-- Ground level construction activity -->
  <rect x="0" y="620" width="1400" height="80" fill="url(#ground)"/>
  <!-- Construction fence -->
  <rect x="0" y="615" width="1400" height="8" fill="#3a4a3a" opacity="0.8"/>
  <rect x="30" y="590" width="4" height="35" fill="#5a7a5a"/>
  <rect x="80" y="590" width="4" height="35" fill="#5a7a5a"/>
  <rect x="130" y="590" width="4" height="35" fill="#5a7a5a"/>
  <rect x="180" y="590" width="4" height="35" fill="#5a7a5a"/>
  <rect x="230" y="590" width="4" height="35" fill="#5a7a5a"/>
  <rect x="280" y="590" width="4" height="35" fill="#5a7a5a"/>
  <rect x="30" y="598" width="254" height="6" fill="#F5C518" opacity="0.6"/>
  <rect x="400" y="590" width="4" height="35" fill="#5a7a5a"/>
  <rect x="450" y="590" width="4" height="35" fill="#5a7a5a"/>
  <rect x="500" y="590" width="4" height="35" fill="#5a7a5a"/>
  <rect x="400" y="598" width="104" height="6" fill="#F5C518" opacity="0.6"/>

  <!-- Dust/haze at ground level -->
  <rect x="0" y="570" width="1400" height="55" fill="rgba(30,50,80,0.3)"/>

  <!-- Atmospheric depth overlay -->
  <rect x="0" y="0" width="1400" height="700" fill="rgba(15,35,71,0.15)"/>
</svg>